<svg xmlns="http://www.w3.org/2000/svg" viewBox="0 0 1024 1024" width="1024" height="1024" role="img" aria-label="Coffee app icon, espresso on cream">
  <title>Coffee app icon, Espresso on Cream</title>
  
  <rect width="1024" height="1024" fill="#E9DCC9"></rect>
  
  <g stroke="#2B1A12" stroke-width="34" stroke-linecap="round" fill="none">
    <path d="M 432 296 C 412 256 452 226 432 184"></path>
    <path d="M 512 292 C 532 252 492 222 512 180"></path>
    <path d="M 592 296 C 572 256 612 226 592 184"></path>
  </g>
  
  <path d="M 740 452 C 916 452 932 632 740 644 L 740 580 C 856 580 856 510 740 510 Z" fill="#2B1A12"></path>
  
  <path d="M 240 380 C 240 364 252 354 268 354 L 756 354 C 772 354 784 364 784 380 C 798 600 700 804 512 804 C 324 804 226 600 240 380 Z" fill="#2B1A12"></path>
  
  <ellipse cx="512" cy="376" rx="272" ry="34" fill="#E9DCC9"></ellipse>
  
  <path d="M 510 376 C 432 410 442 484 485 510 C 494 528 530 590 510 628 C 550 612 568 558 535 510 C 520 484 508 408 510 376 Z" fill="#E9DCC9"></path>
</svg>